<?xml version="1.0" encoding="utf-8"?>
<!-- Generator: Adobe Illustrator 22.0.1, SVG Export Plug-In . SVG Version: 6.00 Build 0)  -->
<svg version="1.1" id="Lager_1" xmlns="http://www.w3.org/2000/svg" xmlns:xlink="http://www.w3.org/1999/xlink" x="0px" y="0px"
	 viewBox="0 0 63 56.4" style="enable-background:new 0 0 63 56.4;" xml:space="preserve">
<style type="text/css">
	.st0{fill:#FAFAFA;}
</style>
<title>Resurs 89</title>
<g id="Lager_2_1_">
	<g id="Lager_1-2">
		<path class="st0" d="M29.6,5.1c0-1.4-0.5-2.7-1.5-3.6c-1.2-1-2.8-1.6-4.3-1.5c-4.5,0-8.6,2.6-10.5,6.7C8.8,5.5,4.2,8.3,3.1,12.8
			c-0.5,1.9-0.3,3.9,0.5,5.7C1.2,21-0.1,24.4,0,27.9c0,4.2,1.9,8.1,5.3,10.6c-2.4,4-1,9.2,3,11.6c1.7,1,3.7,1.4,5.7,1
			c2.1,3.4,5.9,5.5,9.9,5.3h2.4c1.1,0.1,2.1-0.4,2.7-1.2c0.5-0.7,0.7-1.6,0.6-2.4L29.6,5.1z M23.8,52.4c-3,0.2-5.8-1.6-7-4.4l-0.7-2
			l-2,0.8c-2.3,0.9-4.9-0.1-5.8-2.4c-0.5-1.3-0.4-2.8,0.3-4c1.5,0.6,3.1,0.9,4.7,0.9v-4C8.2,37.2,4,33,4,27.9c0-2.7,0.8-6.2,4.5-8.2
			l-1.2-2.3l0.1-0.1c-1.3-2.1-0.8-4.8,1.3-6.2c1-0.7,2.3-0.9,3.5-0.6c0,0.3,0,0.7,0,1c0,1.7,0.4,3.4,1.1,4.9
			c-0.9,0.6-1.7,1.4-2.4,2.2l3.2,2.4c1.3-1.7,3.4-2.6,5.5-2.4l0.5-4c-1-0.1-2-0.1-3,0.1c-0.5-1-0.8-2.2-0.8-3.3
			C16.4,7.4,19.8,4,23.9,4c0.5,0,1,0.1,1.4,0.4c0.1,0.1,0.2,0.2,0.2,0.7v22.5c-4.9,0.7-8.6,4.9-8.6,9.9h4c0-2.8,1.9-5.2,4.6-5.8
			v20.7H23.8z"/>
		<path class="st0" d="M63,28.6c0-4.2-2-8.1-5.3-10.6c2.4-4,1.1-9.2-2.9-11.6C53.1,5.4,51,5,49,5.3C47,1.9,43.2-0.1,39.1,0h-2.4
			c-1.1-0.1-2.1,0.4-2.8,1.2c-0.5,0.7-0.7,1.6-0.5,2.4v47.7c0,1.4,0.5,2.7,1.5,3.6c1.2,1,2.6,1.5,4.1,1.5h0.2
			c4.5,0,8.6-2.6,10.5-6.7c0.7,0.2,1.4,0.3,2.1,0.3c4.7,0,8.5-3.8,8.5-8.4c0-1.2-0.3-2.5-0.8-3.6C61.8,35.5,63.1,32.1,63,28.6z
			 M54.9,44.7c-1.1,1.1-2.7,1.5-4.2,1.2c0-0.3,0.1-0.7,0.1-1c0-1.7-0.4-3.3-1.1-4.9c0.9-0.6,1.7-1.4,2.3-2.3l-3.2-2.4
			c-1.3,1.7-3.4,2.6-5.5,2.3l-0.5,4c0.4,0,0.8,0.1,1.1,0.1c0.6,0,1.3-0.1,1.9-0.2c1.9,3.7,0.3,8.3-3.4,10.1
			c-1.1,0.5-2.2,0.8-3.4,0.8H39c-0.5,0-1-0.2-1.4-0.4c-0.1-0.1-0.2-0.2-0.2-0.7V35.8c4.9-0.7,8.6-4.9,8.6-9.9h-4
			c0,2.8-1.9,5.2-4.6,5.8V4h1.8c3-0.2,5.8,1.6,7,4.4l0.7,2l2-0.8c2.3-0.9,4.9,0.2,5.8,2.5c0.5,1.3,0.4,2.8-0.3,3.9
			c-1.5-0.6-3.1-0.8-4.7-0.9v4c5.2,0,9.4,4.2,9.4,9.4c0,0,0,0,0,0c0,2.7-0.8,6.2-4.5,8.2l1.1,2.2l-0.1,0.1
			C56.6,40.9,56.4,43.2,54.9,44.7L54.9,44.7z"/>
	</g>
</g>
</svg>
