<?xml version="1.0" encoding="utf-8"?>
<!-- Generator: Adobe Illustrator 22.0.1, SVG Export Plug-In . SVG Version: 6.00 Build 0)  -->
<svg version="1.1" id="Lager_1" xmlns="http://www.w3.org/2000/svg" xmlns:xlink="http://www.w3.org/1999/xlink" x="0px" y="0px"
	 viewBox="0 0 97.3 61.1" style="enable-background:new 0 0 97.3 61.1;" xml:space="preserve">
<style type="text/css">
	.st0{fill:#FAFAFA;}
</style>
<title>Resurs 24</title>
<g>
	<rect x="58.7" y="44.9" class="st0" width="4" height="8.1"/>
	<rect x="68.8" y="36.8" class="st0" width="4" height="16.2"/>
	<rect x="79" y="40.9" class="st0" width="4" height="12.1"/>
	<path class="st0" d="M70.6,24.7c4.5,0,8.1-3.6,8.1-8.1l0,0c0-4.5-3.6-8.1-8.1-8.1l0,0c-4.5,0-8.1,3.6-8.1,8.1S66.1,24.7,70.6,24.7z
		 M66.5,16.6c0-2.2,1.8-4,4-4.1v4.1h4.2c0,2.3-1.8,4.1-4.1,4.1C68.4,20.7,66.5,18.8,66.5,16.6L66.5,16.6z"/>
	<rect x="9.2" y="37.8" class="st0" width="20" height="4"/>
	<rect x="9.2" y="45.9" class="st0" width="13" height="4"/>
	<path class="st0" d="M10.2,12.3c1,0,1.9-0.8,1.9-1.9c0-1-0.8-1.9-1.9-1.9l0,0c-1,0-1.9,0.8-1.8,1.9C8.4,11.5,9.2,12.3,10.2,12.3z"
		/>
	<path class="st0" d="M16.3,12.3c1,0,1.9-0.8,1.9-1.9c0-1-0.8-1.9-1.9-1.9l0,0c-1,0-1.9,0.8-1.8,1.9C14.5,11.5,15.3,12.3,16.3,12.3z
		"/>
	<path class="st0" d="M22.5,12.3c1,0,1.9-0.8,1.9-1.9c0-1-0.8-1.9-1.9-1.9c-1,0-1.9,0.8-1.9,1.9S21.4,12.3,22.5,12.3z"/>
	<path class="st0" d="M95.3,0H2C0.9,0,0,0.9,0,2v57.1c0,1.1,0.9,2,2,2h93.3c1.1,0,2-0.9,2-2V2C97.3,0.9,96.4,0,95.3,0z M93.3,28.8
		H49.2V4h44.1V28.8z M45.2,4v24.8H4V4H45.2z M4,32.8h41.2V57H4V32.8z M49.2,57.1V32.8h44.1V57L49.2,57.1L49.2,57.1z"/>
</g>
</svg>
