<?xml version="1.0" encoding="utf-8"?>
<!-- Generator: Adobe Illustrator 22.0.1, SVG Export Plug-In . SVG Version: 6.00 Build 0)  -->
<svg version="1.1" id="Lager_1" xmlns="http://www.w3.org/2000/svg" xmlns:xlink="http://www.w3.org/1999/xlink" x="0px" y="0px"
	 viewBox="0 0 80.2 70.4" style="enable-background:new 0 0 80.2 70.4;" xml:space="preserve">
<style type="text/css">
	.st0{fill:#FAFAFA;}
</style>
<title>Resurs 32</title>
<g id="Lager_2_1_">
	<g id="Lager_1-2">
		<path class="st0" d="M31.9,46.1v20.3H4V46.1H31.9z M35.9,42.1H0v28.3h35.9V42.1z"/>
		<path class="st0" d="M9.6,50.5c-1,0-1.9,0.8-1.9,1.9s0.8,1.9,1.9,1.9s1.9-0.8,1.9-1.9l0,0C11.5,51.4,10.7,50.5,9.6,50.5"/>
		<path class="st0" d="M76.2,46.1v20.3H48.3V46.1H76.2z M80.2,42.1H44.3v28.3h35.9V42.1z"/>
		<path class="st0" d="M54,50.5c-1,0-1.9,0.8-1.9,1.9c0,1,0.8,1.9,1.9,1.9c1,0,1.9-0.8,1.9-1.9l0,0C55.9,51.4,55,50.6,54,50.5"/>
		<rect x="34.2" y="54.6" class="st0" width="11.7" height="4"/>
		<path class="st0" d="M4,4h27.9v20.3H4V4z M0,0L0,0v28.3h35.9V0H0z"/>
		<path class="st0" d="M9.6,8.4c-1,0-1.9,0.8-1.9,1.9s0.8,1.9,1.9,1.9s1.9-0.8,1.9-1.9l0,0C11.5,9.3,10.7,8.4,9.6,8.4"/>
		<path class="st0" d="M48.3,4h27.9v20.3H48.3V4z M44.3,0L44.3,0v28.3h35.9V0H44.3z"/>
		<path class="st0" d="M54,8.4c-1,0-1.9,0.8-1.9,1.9c0,1,0.8,1.9,1.9,1.9c1,0,1.9-0.8,1.9-1.9l0,0C55.9,9.3,55,8.4,54,8.4"/>
		<rect x="34.2" y="12.5" class="st0" width="11.7" height="4"/>
		<rect x="60.6" y="27.1" class="st0" width="4" height="16.2"/>
		<rect x="15.5" y="27.1" class="st0" width="4" height="16.2"/>
	</g>
</g>
</svg>
